# xmcd
#
# Track frame offsets: 
#        150
#        21682
#        43493
#        64296
#        84686
#        103585
#        124429
#        144063
#        163767
#        185982
#        208194
#        227509
#
# Disc length: 3327 seconds
#
# Revision: 0
# Processed by: cddbd v1.5.2PL0 Copyright (c) Steve Scherf et al.
# Submitted via: ExactAudioCopyFreeDBPlugin 1.0
#
DISCID=bb0cfd0c
DTITLE=馨予 - DTSES馨声
DYEAR=2008
DGENRE=DTSES
TTITLE0=崇拜
TTITLE1=做你的爱人
TTITLE2=青花瓷
TTITLE3=月光
TTITLE4=初次与你相遇
TTITLE5=不必在乎我是谁
TTITLE6=烟雨斜阳
TTITLE7=相见恨晚
TTITLE8=落叶归根
TTITLE9=祝我生日快乐
TTITLE10=我心已许
TTITLE11=真爱无敌
EXTD=
EXTT0=
EXTT1=
EXTT2=
EXTT3=
EXTT4=
EXTT5=
EXTT6=
EXTT7=
EXTT8=
EXTT9=
EXTT10=
EXTT11=
PLAYORDER=
